<svg width="32" height="32" viewBox="0 0 32 32" fill="none" xmlns="http://www.w3.org/2000/svg">
  <rect width="32" height="32" rx="8" fill="#d75114"/>
  <svg x="4" y="3" width="24" height="26" viewBox="25 53 164 167">
    <path fill="#ffffff" d="m 41.514485,220.34078 c -0.76123,-0.30744 -0.79375,-0.49399 -0.79375,-4.55286 0,-3.82329 0.0659,-4.26758 0.68236,-4.59748 0.45444,-0.24321 10.33435,-0.36519 29.57866,-0.36519 34.237295,0 30.718895,0.6058 29.212145,-5.02977 -6.271575,-23.45705 -23.493425,-41.92043 -46.141275,-49.4676 -7.68811,-2.56198 -16.77978,-4.05941 -24.665781,-4.06253 -2.147472,-8.6e-4 -3.161868,-0.1437 -3.445256,-0.48516 -0.220906,-0.26618 -0.501694,-2.23254 -0.623973,-4.36969 -0.28813,-5.03584 -0.569261,-4.85556 7.099356,-4.55271 12.777194,0.50459 23.633314,3.17098 34.585714,8.49465 16.00868,7.78141 28.28694,20.00698 36.522595,36.36587 2.27448,4.51793 2.32651,4.58611 3.49966,4.58611 1.17739,0 1.21948,-0.0565 3.72149,-4.99469 12.29366,-24.26388 34.10127,-39.7047 61.73681,-43.71259 1.94028,-0.2814 6.15198,-0.61309 9.35933,-0.73709 7.45016,-0.28805 7.23296,-0.43398 6.87473,4.6188 -0.1384,1.95219 -0.40046,3.8275 -0.58234,4.16736 -0.27615,0.516 -0.83787,0.61813 -3.4051,0.61914 -11.32491,0.004 -23.921,2.89809 -33.76606,7.75696 -18.18743,8.97609 -31.68845,25.596 -37.0502,45.60922 -1.02937,3.84219 -1.03495,3.92345 -0.31905,4.63936 0.49418,0.49417 3.44589,0.55436 27.18708,0.55436 17.68397,0 26.862,0.12271 27.31508,0.36519 0.6129,0.32801 0.68182,0.76795 0.67696,4.32153 -0.003,2.17598 -0.15592,4.19446 -0.33989,4.4855 -0.29503,0.46673 -7.75589,0.53712 -63.23002,0.59653 -37.073825,0.0397 -63.221405,-0.0643 -63.689275,-0.25322 z m 62.882645,-59.39919 c -0.58208,-0.25694 -1.37583,-0.82302 -1.76389,-1.25796 -0.6893,-0.77257 -0.70555,-1.28957 -0.70555,-22.4428 v -21.65201 l 1.13591,-1.13592 c 0.9936,-0.9936 1.41763,-1.15385 3.38442,-1.27909 2.66638,-0.16978 4.1547,0.44728 5.19534,2.15398 0.66245,1.08646 0.68863,1.92077 0.68863,21.94329 0,20.25538 -0.0191,20.84523 -0.71196,21.98165 -1.2128,1.98923 -4.69687,2.80387 -7.2229,1.68886 z M 59.184705,126.80808 c -0.96291,-0.4756 -3.44006,-6.72439 -3.13985,-7.9205 0.15373,-0.61254 1.25217,-1.31846 4.59668,-2.9541 4.83256,-2.36337 10.2174,-5.78266 14.29865,-9.0794 3.12256,-2.52235 9.05257,-8.56969 11.33918,-11.56355 7.79599,-10.20727 12.96569,-22.91751 14.420475,-35.45417 0.73069,-6.29675 0.4139,-5.99722 6.34272,-5.99722 4.47938,0 4.54432,0.0115 5.26647,0.92952 0.48015,0.61043 0.73116,1.44613 0.73116,2.43439 0,2.19203 1.27036,9.34294 2.34794,13.21665 5.55116,19.95536 19.06437,36.24 37.55671,45.25921 5.71038,2.78511 5.70903,2.78267 3.99992,7.19364 -0.86554,2.23385 -1.56742,3.49841 -2.15564,3.88383 -0.81778,0.53583 -0.99742,0.52111 -2.87794,-0.23581 -1.10314,-0.44402 -3.60989,-1.65591 -5.57054,-2.69308 -15.36441,-8.12767 -27.28431,-20.26469 -34.93771,-35.57411 -1.26603,-2.53248 -2.55142,-4.88233 -2.85643,-5.22188 -0.57582,-0.64103 -2.06082,-0.81271 -2.82617,-0.32672 -0.24239,0.1539 -1.59287,2.57241 -3.00109,5.37445 -4.432725,8.82017 -8.935175,14.97301 -16.010145,21.87873 -6.4801,6.32508 -13.80425,11.44817 -21.91809,15.33122 -3.80894,1.82285 -4.57222,2.02965 -5.6063,1.5189 z"/>
  </svg>
</svg>
